<svg width="28" height="28" viewBox="0 0 28 28" fill="none" xmlns="http://www.w3.org/2000/svg">
<path d="M0 3.02703C0 1.35525 1.33681 0 2.98585 0H24.6332C26.2823 0 27.6191 1.35525 27.6191 3.02703V24.973C27.6191 26.6448 26.2823 28 24.6332 28H2.98585C1.33681 28 0 26.6448 0 24.973V3.02703Z" fill="#543EA3"/>
<path d="M15.5357 12.3644C14.5824 10.6904 15.1482 8.54981 16.7994 7.58331L22.7317 18.0001C23.685 19.6741 23.1192 21.8146 21.468 22.7811L15.5357 12.3644Z" fill="white"/>
<path d="M14.9603 19.8333C13.0536 19.8333 11.5079 18.2663 11.5079 16.3333H19.5634C21.4701 16.3333 23.0158 17.9003 23.0158 19.8333H14.9603Z" fill="white"/>
<path d="M5.17856 17.9689C4.22521 19.6429 4.79097 21.7835 6.44222 22.75L14.4194 8.74245C15.3728 7.06843 14.8071 4.92786 13.1557 3.96136L5.17856 17.9689Z" fill="white"/>
</svg>